<svg width="1000" height="700" viewBox="0 0 1000 700" fill="none" xmlns="http://www.w3.org/2000/svg">
    <rect x="0" y="300" width="1000" height="400" fill="#1c1c1c"/> 
    
    <rect x="50" y="150" width="80" height="550" fill="#282828"/>
    <rect x="60" y="160" width="10" height="20" fill="#383838"/>
    <rect x="75" y="160" width="10" height="20" fill="#383838"/>
    <rect x="90" y="160" width="10" height="20" fill="#383838"/>
    <rect x="60" y="190" width="10" height="20" fill="#383838"/>
    <rect x="75" y="190" width="10" height="20" fill="#383838"/>
    <rect x="90" y="190" width="10" height="20" fill="#383838"/>

    <rect x="150" y="250" width="100" height="450" fill="#383838"/>
    <rect x="160" y="260" width="15" height="25" fill="#4d4d4d"/>
    <rect x="180" y="260" width="15" height="25" fill="#4d4d4d"/>
    <rect x="200" y="260" width="15" height="25" fill="#4d4d4d"/>
    <rect x="220" y="260" width="15" height="25" fill="#4d4d4d"/>

    <rect x="280" y="80" width="120" height="620" fill="#282828"/>
    <rect x="290" y="90" width="20" height="30" fill="#383838"/>
    <rect x="320" y="90" width="20" height="30" fill="#383838"/>
    <rect x="350" y="90" width="20" height="30" fill="#383838"/>
    <rect x="380" y="90" width="20" height="30" fill="#383838"/>

    <rect x="420" y="200" width="90" height="500" fill="#383838"/>
    <rect x="430" y="210" width="12" height="20" fill="#4d4d4d"/>
    <rect x="445" y="210" width="12" height="20" fill="#4d4d4d"/>
    <rect x="460" y="210" width="12" height="20" fill="#4d4d4d"/>
    <rect x="475" y="210" width="12" height="20" fill="#4d4d4d"/>
    <rect x="490" y="210" width="12" height="20" fill="#4d4d4d"/>

    <rect x="530" y="280" width="70" height="420" fill="#282828"/>
    <rect x="540" y="290" width="10" height="18" fill="#383838"/>
    <rect x="555" y="290" width="10" height="18" fill="#383838"/>
    <rect x="570" y="290" width="10" height="18" fill="#383838"/>

    <rect x="620" y="100" width="150" height="600" fill="#383838"/>
    <rect x="630" y="110" width="25" height="35" fill="#4d4d4d"/>
    <rect x="660" y="110" width="25" height="35" fill="#4d4d4d"/>
    <rect x="690" y="110" width="25" height="35" fill="#4d4d4d"/>
    <rect x="720" y="110" width="25" height="35" fill="#4d4d4d"/>

    <rect x="800" y="350" width="90" height="350" fill="#282828"/>
    <rect x="810" y="360" width="12" height="20" fill="#383838"/>
    <rect x="825" y="360" width="12" height="20" fill="#383838"/>
    <rect x="840" y="360" width="12" height="20" fill="#383838"/>
    <rect x="855" y="360" width="12" height="20" fill="#383838"/>
    <rect x="870" y="360" width="12" height="20" fill="#383838"/>
</svg>